<?xml version="1.0" encoding="utf-8"?>
<!-- Generator: Adobe Illustrator 19.0.0, SVG Export Plug-In . SVG Version: 6.00 Build 0)  -->
<svg version="1.1" id="图层_1" xmlns="http://www.w3.org/2000/svg" xmlns:xlink="http://www.w3.org/1999/xlink" x="0px" y="0px"
	 viewBox="0 0 21 21" style="enable-background:new 0 0 21 21;" xml:space="preserve">
<style type="text/css">
	.st0{fill:#AAAAAA;}
</style>
<path id="XMLID_4_" class="st0" d="M1,20.5c-0.1,0-0.3,0-0.4-0.1c-0.2-0.2-0.2-0.5,0-0.7L19.7,0.6c0.2-0.2,0.5-0.2,0.7,0
	s0.2,0.5,0,0.7L1.3,20.4C1.2,20.5,1.1,20.5,1,20.5z"/>
<path id="XMLID_1_" class="st0" d="M20,20.5c0.1,0,0.3,0,0.4-0.1c0.2-0.2,0.2-0.5,0-0.7L1.3,0.6c-0.2-0.2-0.5-0.2-0.7,0
	s-0.2,0.5,0,0.7l19.1,19.1C19.8,20.5,19.9,20.5,20,20.5z"/>
</svg>
